<?xml version="1.0" standalone="no"?><svg xmlns="http://www.w3.org/2000/svg" viewBox="0 0 1440 320"><path fill="#0099ff" fill-opacity="1" d="M0,256L21.8,266.7C43.6,277,87,299,131,256C174.5,213,218,107,262,90.7C305.5,75,349,149,393,154.7C436.4,160,480,96,524,90.7C567.3,85,611,139,655,186.7C698.2,235,742,277,785,293.3C829.1,309,873,299,916,266.7C960,235,1004,181,1047,186.7C1090.9,192,1135,256,1178,277.3C1221.8,299,1265,277,1309,261.3C1352.7,245,1396,235,1418,229.3L1440,224L1440,0L1418.2,0C1396.4,0,1353,0,1309,0C1265.5,0,1222,0,1178,0C1134.5,0,1091,0,1047,0C1003.6,0,960,0,916,0C872.7,0,829,0,785,0C741.8,0,698,0,655,0C610.9,0,567,0,524,0C480,0,436,0,393,0C349.1,0,305,0,262,0C218.2,0,175,0,131,0C87.3,0,44,0,22,0L0,0Z"></path></svg>