<?xml version="1.0" standalone="no"?><svg xmlns="http://www.w3.org/2000/svg" viewBox="0 0 1440 320"><path fill="#f64747" fill-opacity="1" d="M0,320L10.4,277.3C20.9,235,42,149,63,144C83.5,139,104,213,125,224C146.1,235,167,181,188,149.3C208.7,117,230,107,250,90.7C271.3,75,292,53,313,69.3C333.9,85,355,139,376,165.3C396.5,192,417,192,438,176C459.1,160,480,128,501,122.7C521.7,117,543,139,563,138.7C584.3,139,605,117,626,112C647,107,668,117,689,133.3C709.6,149,730,171,751,192C772.2,213,793,235,814,256C834.8,277,856,299,877,282.7C897.4,267,918,213,939,181.3C960,149,981,139,1002,133.3C1022.6,128,1043,128,1064,122.7C1085.2,117,1106,107,1127,106.7C1147.8,107,1169,117,1190,112C1210.4,107,1231,85,1252,80C1273,75,1294,85,1315,90.7C1335.7,96,1357,96,1377,90.7C1398.3,85,1419,75,1430,69.3L1440,64L1440,320L1429.6,320C1419.1,320,1398,320,1377,320C1356.5,320,1336,320,1315,320C1293.9,320,1273,320,1252,320C1231.3,320,1210,320,1190,320C1168.7,320,1148,320,1127,320C1106.1,320,1085,320,1064,320C1043.5,320,1023,320,1002,320C980.9,320,960,320,939,320C918.3,320,897,320,877,320C855.7,320,835,320,814,320C793,320,772,320,751,320C730.4,320,710,320,689,320C667.8,320,647,320,626,320C605.2,320,584,320,563,320C542.6,320,522,320,501,320C480,320,459,320,438,320C417.4,320,397,320,376,320C354.8,320,334,320,313,320C292.2,320,271,320,250,320C229.6,320,209,320,188,320C167,320,146,320,125,320C104.3,320,83,320,63,320C41.7,320,21,320,10,320L0,320Z"></path></svg>